<?xml version="1.0" standalone="no"?>
<!DOCTYPE svg PUBLIC "-//W3C//DTD SVG 20010904//EN"
 "http://www.w3.org/TR/2001/REC-SVG-20010904/DTD/svg10.dtd">
<svg version="1.0" xmlns="http://www.w3.org/2000/svg"
 width="550.000000pt" height="550.000000pt" viewBox="0 0 550.000000 550.000000"
 preserveAspectRatio="xMidYMid meet">
<metadata>
Created by potrace 1.14, written by Peter Selinger 2001-2017
</metadata>
<g transform="translate(0.000000,550.000000) scale(0.100000,-0.100000)"
fill="#000000" stroke="none">
<path d="M2016 5168 c-14 -23 -52 -138 -61 -187 -3 -14 -7 -37 -10 -51 -3 -14
-8 -38 -10 -55 -26 -149 -48 -272 -60 -330 -52 -259 -60 -332 -60 -545 0 -159
2 -179 20 -205 11 -17 25 -42 32 -57 11 -25 10 -29 -9 -39 -20 -11 -115 -8
-175 5 -67 14 -111 17 -117 7 -4 -6 4 -29 16 -52 13 -23 29 -52 36 -65 28 -51
49 -193 57 -384 8 -187 14 -251 34 -370 14 -86 14 -87 -9 -110 -23 -23 -82
-27 -140 -10 -124 37 -304 55 -530 54 -293 -1 -530 -53 -753 -166 -69 -35 -69
-36 40 -109 39 -27 83 -59 96 -71 23 -22 120 -154 178 -243 15 -22 120 -181
234 -354 114 -173 213 -328 220 -344 22 -52 1 -94 -95 -197 -62 -66 -66 -78
-35 -90 15 -6 30 -10 34 -10 22 0 325 -92 364 -110 103 -48 116 -101 66 -251
-37 -110 -35 -120 25 -114 314 34 478 35 538 4 41 -22 57 -115 34 -192 -8 -26
-13 -47 -11 -47 2 0 25 9 52 21 71 31 97 42 103 44 11 4 198 98 230 117 19 11
76 51 125 88 122 93 179 126 400 234 221 108 328 156 348 156 13 0 35 -43 100
-190 36 -83 55 -124 98 -215 99 -212 113 -245 150 -350 22 -60 39 -124 39
-142 0 -18 3 -33 6 -33 15 0 75 43 84 61 23 42 -18 147 -150 389 -122 224
-174 331 -200 419 -30 101 -24 104 198 87 92 -7 343 -8 412 -2 142 13 234 26
355 50 182 36 437 120 613 204 l63 30 -78 37 c-85 41 -148 99 -158 144 -17 78
37 164 188 304 62 56 129 120 150 142 37 38 93 122 86 129 -2 2 -29 6 -59 9
-156 17 -230 58 -230 128 0 47 46 227 99 384 43 130 60 215 42 215 -6 0 -34
-9 -63 -20 -56 -21 -114 -26 -138 -10 -12 8 -10 23 19 108 41 122 40 111 46
477 2 165 8 354 12 420 14 250 4 425 -26 425 -4 0 -36 -27 -70 -60 -35 -33
-154 -128 -264 -210 -350 -260 -389 -292 -502 -405 -123 -123 -133 -135 -237
-267 -77 -98 -105 -127 -125 -128 -20 0 -51 54 -96 172 -101 261 -190 389
-447 647 -107 108 -118 123 -154 206 -51 120 -96 208 -110 217 -18 13 -26 9
-59 -26 -46 -48 -74 -52 -131 -16 -26 17 -53 35 -59 40 -7 6 -48 39 -93 74
-89 70 -289 265 -346 336 -32 40 -118 197 -118 215 0 4 -9 18 -19 31 l-20 25
-15 -23z"/>
</g>
</svg>
